<?xml version="1.0" encoding="UTF-8" standalone="no"?>
<!-- Created with Inkscape (http://www.inkscape.org/) -->
<svg xmlns:svg="http://www.w3.org/2000/svg" xmlns="http://www.w3.org/2000/svg" xmlns:xlink="http://www.w3.org/1999/xlink" version="1.0" width="220pt" height="250pt" id="svg1332">
  <defs id="defs1334">
    <linearGradient x1="0.052173913" y1="0.9765625" x2="0.78260869" y2="0.0078125" id="linearGradient1506" xlink:href="#linearGradient1507"/>
    <linearGradient id="linearGradient1507">
      <stop id="stop1508" style="stop-color: rgb(0, 0, 0); stop-opacity: 0.0955056;" offset="0"/>
      <stop id="stop1510" style="stop-color: rgb(0, 0, 0); stop-opacity: 0;" offset="1"/>
    </linearGradient>
    <linearGradient x1="1.5572519" y1="-0.55303031" x2="0.062992126" y2="0.546875" id="linearGradient1499" xlink:href="#linearGradient1501"/>
    <linearGradient id="linearGradient1501">
      <stop id="stop1502" style="stop-color: rgb(255, 255, 255); stop-opacity: 1;" offset="0"/>
      <stop id="stop1504" style="stop-color: rgb(255, 255, 255); stop-opacity: 0;" offset="1"/>
    </linearGradient>
    <linearGradient x1="0.88034189" y1="0.2109375" x2="0.085470088" y2="1.1796875" id="linearGradient1495" xlink:href="#linearGradient1492"/>
    <linearGradient id="linearGradient1492">
      <stop id="stop1493" style="stop-color: rgb(218, 218, 218); stop-opacity: 1;" offset="0"/>
      <stop id="stop1496" style="stop-color: rgb(241, 241, 241); stop-opacity: 1;" offset="0.34923077"/>
      <stop id="stop1494" style="stop-color: rgb(240, 240, 240); stop-opacity: 1;" offset="1"/>
    </linearGradient>
    <linearGradient x1="0.63247865" y1="0.328125" x2="-0.37606838" y2="1.328125" id="linearGradient1497" xlink:href="#linearGradient1492"/>
  </defs>
  <path d="M -107.71068,-81.020338 L -107.71068,-37.362645 L -107.71068,6.2950448 L -107.71068,49.952737 L -107.71068,93.610429 L -68.01179,93.610429 L -28.312898,93.610429 L 11.38599,93.610429 L 51.084874,93.610429 L 51.084874,49.952737 L 51.084874,6.2950448 L 51.084874,-37.362645 L 11.38599,-81.020338 L -28.312898,-81.020338 L -68.01179,-81.020338 L -107.71068,-81.020338 z" transform="matrix(1.59178, 0, 0, 1.62345, 182.307, 142.25)" id="path1505" style="fill: url(#linearGradient1506) rgb(0, 0, 0); fill-opacity: 0.75; fill-rule: evenodd; stroke-width: 0.954075pt;"/>
  <path d="M -107.48888,-81.600638 C -107.48888,-22.811633 -107.48888,35.977367 -107.48888,94.766369 C -53.768362,94.766369 -0.047842466,94.766369 53.672676,94.766369 C 53.672676,50.573257 53.672676,6.3801468 53.672676,-37.812967 C 40.223274,-52.604441 26.778956,-67.40081 13.3167,-82.180903 C -26.951828,-82.180903 -67.220352,-82.180903 -107.48888,-82.180903 C -107.48888,-82.061875 -107.48888,-81.67503 -107.48888,-81.600638 z" transform="matrix(1.59178, 0, 0, 1.62345, 182.307, 142.25)" id="path1538" style="fill: url(#linearGradient1506) rgb(0, 0, 0); fill-opacity: 0.75; fill-rule: evenodd; stroke-width: 0.954075pt;"/>
  <path d="M -107.61411,-82.761167 C -107.61411,-23.198479 -107.61411,36.364211 -107.61411,95.926899 C -53.10274,95.926899 1.4086235,95.926899 55.919998,95.926899 C 55.919998,51.198157 55.919998,6.4694188 55.919998,-38.259325 C 42.25012,-53.288903 28.58516,-68.323228 14.902438,-83.341432 C -25.93641,-83.341432 -66.775256,-83.341432 -107.61411,-83.341432 C -107.61411,-83.222405 -107.61411,-82.835559 -107.61411,-82.761167 z" transform="matrix(1.59178, 0, 0, 1.62345, 182.307, 142.25)" id="path1543" style="fill: url(#linearGradient1506) rgb(0, 0, 0); fill-opacity: 0.75; fill-rule: evenodd; stroke-width: 0.954075pt;"/>
  <path d="M -111.00205,-84.420766 L -111.00205,-40.333685 L -111.00205,3.7533948 L -111.00205,47.840475 L -111.00205,91.927555 L -70.768866,91.927555 L -30.535706,91.927555 L 9.6974535,91.927555 L 49.930648,91.927555 L 49.930648,47.840475 L 49.930648,3.7533948 L 49.930648,-40.333685 L 9.6974535,-84.420766 L -30.535706,-84.420766 L -70.768866,-84.420766 L -111.00205,-84.420766 z" transform="matrix(1.59178, 0, 0, 1.62345, 182.307, 142.25)" id="path930" style="fill: rgb(255, 255, 255); fill-rule: evenodd; stroke-width: 0.42649; stroke-opacity: 0.36478;"/>
  <path d="M -111.326,-84.202166 L -111.326,-40.115085 L -111.326,3.9719948 L -111.326,48.059095 L -111.326,92.146155 L -71.092836,92.146155 L -30.859656,92.146155 L 9.3735035,92.146155 L 49.606668,92.146155 L 49.606668,48.059095 L 49.606668,3.9719948 L 49.606668,-40.115085 L 9.3735035,-84.202166 L -30.859656,-84.202166 L -71.092836,-84.202166 L -111.326,-84.202166 z" transform="matrix(1.59178, 0, 0, 1.62345, 182.307, 142.25)" id="rect900" style="fill: url(#linearGradient1495) rgb(0, 0, 0); fill-opacity: 1; fill-rule: evenodd; stroke: rgb(0, 0, 0); stroke-width: 0.511788; stroke-opacity: 0.36478;"/>
  <path d="M -107.83333,-72.168402 L -108.55815,89.466198 L 49.452406,89.466198 L 49.543006,49.510538 C 46.009506,50.869578 10.312146,0.31345831 -34.626624,2.4879183 C -79.606204,4.6643583 -67.968304,-65.645043 -107.83333,-72.168402 z" transform="matrix(1.59178, 0, 0, 1.62345, 182.307, 142.25)" id="path1500" style="fill: url(#linearGradient1499) rgb(0, 0, 0); fill-opacity: 1; fill-rule: evenodd; stroke-width: 1pt;"/>
  <g transform="matrix(2, 0, 0, 2, 200.677, 277.614)" id="g986">
    <defs id="defs5"/>
    <path d="M 35.997699,13.999941 L 34.994894,13.020969 L 34.9751,0.99486069 L 35.99783,0.0079440893 L 35.997699,13.999941 z" id="path2764" style="fill: rgb(128, 51, 0); fill-rule: evenodd; stroke: none; stroke-width: 1px; stroke-linecap: butt; stroke-linejoin: miter; stroke-opacity: 1;"/>
    <rect width="34.007584" height="12.029619" x="0.98731136" y="0.99499226" id="rect1873" style="fill: rgb(255, 102, 0); fill-opacity: 1; stroke: none; stroke-width: 2; stroke-linecap: round; stroke-linejoin: round; stroke-miterlimit: 4; stroke-opacity: 1;"/>
    <path d="M 0.000263178,0 L 36.001474,0.0040378393 L 34.982912,0.99108607 L 0.99903014,1.0028048 L 0.000263178,0 z" id="path1875" style="fill: rgb(255, 204, 170); fill-opacity: 1; fill-rule: evenodd; stroke: none; stroke-width: 1px; stroke-linecap: butt; stroke-linejoin: miter; stroke-opacity: 1;"/>
    <path d="M 0.0040378391,14.000263 L 36.001342,14.004038 L 34.994499,13.01699 L 0.9871798,13.01699 L 0.0040378391,14.000263 z" id="path2762" style="fill: rgb(85, 34, 0); fill-opacity: 1; fill-rule: evenodd; stroke: none; stroke-width: 1px; stroke-linecap: butt; stroke-linejoin: miter; stroke-opacity: 1;"/>
    <path d="M 0.99512389,13.008723 L 0.000394767,13.999941 L 0,4.6800056e-10 L 0.99108604,0.99095444 L 0.99512389,13.008723 z" id="path3651" style="fill: rgb(255, 153, 85); fill-rule: evenodd; stroke: none; stroke-width: 1px; stroke-linecap: butt; stroke-linejoin: miter; stroke-opacity: 1;"/>
    <g id="g4580">
      <path d="M 4.8170128,3.8673983 L 7.7408409,3.8673983 L 9.2642784,6.5099764 L 10.740841,3.8673983 L 13.635372,3.8673983 L 10.963497,8.0275545 L 13.887325,12.457242 L 10.904903,12.457242 L 9.211544,9.6974764 L 7.5123253,12.457242 L 4.5474815,12.457242 L 7.5123253,7.9806795 L 4.8170128,3.8673983 z M 14.707638,3.8673983 L 18.199825,3.8673983 L 19.547482,9.0939608 L 20.889278,3.8673983 L 24.369747,3.8673983 L 24.369747,12.457242 L 22.201778,12.457242 L 22.201778,5.9064608 L 20.520138,12.457242 L 18.557247,12.457242 L 16.881466,5.9064608 L 16.881466,12.457242 L 14.707638,12.457242 L 14.707638,3.8673983 z M 26.057247,3.8673983 L 28.711544,3.8673983 L 28.711544,10.342008 L 32.854122,10.342008 L 32.854122,12.457242 L 26.057247,12.457242 L 26.057247,3.8673983 z" id="text4574" style="font-size: 12px; font-style: normal; font-variant: normal; font-weight: 800; font-stretch: normal; text-anchor: start; fill: rgb(128, 51, 0); fill-opacity: 1; stroke: none; stroke-width: 1px; stroke-linecap: butt; stroke-linejoin: miter; stroke-opacity: 1; font-family: Arial Black;"/>
      <path d="M 4.2424884,2.9393196 L 7.1663165,2.9393196 L 8.689754,5.5818977 L 10.166317,2.9393196 L 13.060848,2.9393196 L 10.388973,7.0994759 L 13.312801,11.529163 L 10.330379,11.529163 L 8.6370196,8.7693977 L 6.9378009,11.529163 L 3.9729571,11.529163 L 6.9378009,7.0526009 L 4.2424884,2.9393196 z M 14.133113,2.9393196 L 17.625301,2.9393196 L 18.972957,8.1658821 L 20.314754,2.9393196 L 23.795223,2.9393196 L 23.795223,11.529163 L 21.627254,11.529163 L 21.627254,4.9783821 L 19.945613,11.529163 L 17.982723,11.529163 L 16.306942,4.9783821 L 16.306942,11.529163 L 14.133113,11.529163 L 14.133113,2.9393196 z M 25.482723,2.9393196 L 28.13702,2.9393196 L 28.13702,9.413929 L 32.279598,9.413929 L 32.279598,11.529163 L 25.482723,11.529163 L 25.482723,2.9393196 z" id="text4570" style="font-size: 12px; font-style: normal; font-variant: normal; font-weight: 800; font-stretch: normal; text-anchor: start; fill: rgb(255, 255, 255); fill-opacity: 1; stroke: none; stroke-width: 1px; stroke-linecap: butt; stroke-linejoin: miter; stroke-opacity: 1; font-family: Arial Black;"/>
    </g>
  </g>
  <g transform="translate(292.845, -1.61638)" id="g1035">
    <text x="-189.721" y="20.875" transform="scale(1.50248, 1.99343)" id="text1230" xml:space="preserve" style="font-size: 10px; font-style: normal; font-variant: normal; font-weight: normal; font-stretch: normal; line-height: 100%; text-anchor: start; fill: rgb(0, 0, 0); fill-opacity: 1; stroke: none; stroke-width: 1pt; stroke-linecap: butt; stroke-linejoin: miter; stroke-opacity: 1; font-family: courier new;"><tspan id="tspan1231"> &lt;?xml version="1.0" en</tspan></text>
    <text x="237.026" y="157.289" transform="matrix(1.50248, 0, 0, 1.99343, -632.171, -37.7042)" id="text996" xml:space="preserve" style="font-size: 10px; font-style: normal; font-variant: normal; font-weight: normal; font-stretch: normal; line-height: 100%; text-anchor: start; fill: rgb(0, 0, 0); fill-opacity: 1; stroke: none; stroke-width: 1pt; stroke-linecap: butt; stroke-linejoin: miter; stroke-opacity: 1; font-family: courier new;"><tspan id="tspan997">&lt;/quiz&gt;</tspan></text>
    <text x="252.323" y="54.4805" transform="matrix(1.50248, 0, 0, 1.99343, -642.354, -23.0955)" id="text990" xml:space="preserve" style="font-size: 10px; font-style: normal; font-variant: normal; font-weight: normal; font-stretch: normal; line-height: 100%; text-anchor: start; fill: rgb(0, 0, 0); fill-opacity: 1; stroke: none; stroke-width: 1pt; stroke-linecap: butt; stroke-linejoin: miter; stroke-opacity: 1; font-family: courier new;"><tspan id="tspan991">&lt;question&gt;</tspan></text>
    <text x="-183.725" y="32.3572" transform="scale(1.50248, 1.99343)" id="text1002" xml:space="preserve" style="font-size: 10px; font-style: normal; font-variant: normal; font-weight: normal; font-stretch: normal; line-height: 100%; text-anchor: start; fill: rgb(0, 0, 0); fill-opacity: 1; stroke: none; stroke-width: 1pt; stroke-linecap: butt; stroke-linejoin: miter; stroke-opacity: 1; font-family: courier new;"><tspan id="tspan1003">&lt;quiz&gt;</tspan></text>
    <text x="252.323" y="85.9258" transform="matrix(1.50248, 0, 0, 1.99343, -642.354, -23.0955)" id="text1005" xml:space="preserve" style="font-size: 10px; font-style: normal; font-variant: normal; font-weight: normal; font-stretch: normal; line-height: 100%; text-anchor: start; fill: rgb(0, 0, 0); fill-opacity: 1; stroke: none; stroke-width: 1pt; stroke-linecap: butt; stroke-linejoin: miter; stroke-opacity: 1; font-family: courier new;"><tspan id="tspan1006">&lt;/question&gt;</tspan></text>
    <text x="252.323" y="98.2255" transform="matrix(1.50248, 0, 0, 1.99343, -642.354, -23.0955)" id="text1008" xml:space="preserve" style="font-size: 10px; font-style: normal; font-variant: normal; font-weight: normal; font-stretch: normal; line-height: 100%; text-anchor: start; fill: rgb(0, 0, 0); fill-opacity: 1; stroke: none; stroke-width: 1pt; stroke-linecap: butt; stroke-linejoin: miter; stroke-opacity: 1; font-family: courier new;"><tspan id="tspan1009">&lt;answer&gt;</tspan></text>
    <text x="245.546" y="125.401" transform="matrix(1.50248, 0, 0, 1.99343, -632.171, -37.7042)" id="text1011" xml:space="preserve" style="font-size: 10px; font-style: normal; font-variant: normal; font-weight: normal; font-stretch: normal; line-height: 100%; text-anchor: start; fill: rgb(0, 0, 0); fill-opacity: 1; stroke: none; stroke-width: 1pt; stroke-linecap: butt; stroke-linejoin: miter; stroke-opacity: 1; font-family: courier new;"><tspan id="tspan1012">&lt;/answer&gt;</tspan></text>
    <text x="252.499" y="65.3708" transform="matrix(1.50248, 0, 0, 1.99343, -642.354, -23.0955)" id="text1014" xml:space="preserve" style="font-size: 10px; font-style: normal; font-variant: normal; font-weight: normal; font-stretch: normal; line-height: 100%; text-anchor: start; fill: rgb(0, 0, 0); fill-opacity: 1; stroke: none; stroke-width: 1pt; stroke-linecap: butt; stroke-linejoin: miter; stroke-opacity: 1; font-family: courier new;"><tspan id="tspan1015">Who was the forty-second</tspan><tspan x="252.499" y="75.3708" id="tspan1019">president of the U.S.A.?</tspan></text>
    <text x="252.499" y="108.102" transform="matrix(1.50248, 0, 0, 1.99343, -642.354, -23.0955)" id="text1648" xml:space="preserve" style="font-size: 10px; font-style: normal; font-variant: normal; font-weight: normal; font-stretch: normal; line-height: 100%; text-anchor: start; fill: rgb(0, 0, 0); fill-opacity: 1; stroke: none; stroke-width: 1pt; stroke-linecap: butt; stroke-linejoin: miter; stroke-opacity: 1; font-family: courier new;"><tspan id="tspan1649">William Jefferson Clinton</tspan></text>
    <text x="237.026" y="138.135" transform="matrix(1.50248, 0, 0, 1.99343, -632.171, -37.7042)" id="text1070" xml:space="preserve" style="font-size: 10px; font-style: normal; font-variant: normal; font-weight: normal; font-stretch: normal; line-height: 100%; text-anchor: start; fill: rgb(150, 150, 150); fill-opacity: 1; stroke: none; stroke-width: 1pt; stroke-linecap: butt; stroke-linejoin: miter; stroke-opacity: 1; font-family: courier new;"><tspan id="tspan1071">&lt;!-- Note: We need to add</tspan><tspan x="237.026" y="148.135" id="tspan1073">   more questions later.--&gt;</tspan></text>
  </g>
  <path d="M 48.966248,-40.115085 C 36.836494,-43.706085 21.119074,-43.196885 9.2456135,-41.150125 C 11.295694,-54.304905 11.551954,-70.791106 8.7330735,-84.202166 L 48.966248,-40.115085 z" transform="matrix(1.59178, 0, 0, 1.62345, 182.307, 142.25)" id="path906" style="fill: url(#linearGradient1497) rgb(0, 0, 0); fill-opacity: 1; fill-rule: evenodd; stroke-width: 0.954075pt;"/>
</svg>